<?xml version="1.0" standalone="no"?>
<!DOCTYPE svg PUBLIC "-//W3C//DTD SVG 20010904//EN"
 "http://www.w3.org/TR/2001/REC-SVG-20010904/DTD/svg10.dtd">
<svg version="1.0" xmlns="http://www.w3.org/2000/svg"
 width="512.000000pt" height="512.000000pt" viewBox="0 0 512.000000 512.000000"
 preserveAspectRatio="xMidYMid meet">

<g transform="translate(0.000000,512.000000) scale(0.100000,-0.100000)"
fill="#000000" stroke="none">
<path d="M960 4960 l0 -160 -237 0 c-174 0 -255 -4 -300 -15 -205 -48 -360
-203 -408 -408 -22 -93 -22 -3221 0 -3314 48 -205 205 -361 410 -408 55 -13
193 -15 974 -13 901 3 910 3 937 24 53 39 69 71 69 134 0 63 -16 95 -69 134
-27 21 -38 21 -944 26 -1025 6 -943 -1 -1015 79 -19 22 -40 57 -46 78 -7 26
-11 371 -11 1061 l0 1022 2080 0 2080 0 0 558 c0 604 -2 627 -56 735 -65 130
-173 227 -307 275 -70 26 -80 27 -334 30 l-263 3 0 160 0 159 -160 0 -160 0 0
-160 0 -160 -960 0 -960 0 0 160 0 160 -160 0 -160 0 0 -160z m0 -720 l0 -240
160 0 160 0 0 240 0 240 960 0 960 0 0 -240 0 -240 160 0 160 0 0 240 0 240
223 0 c131 0 238 -5 262 -11 53 -15 129 -91 144 -144 7 -26 11 -174 11 -422
l0 -383 -1920 0 -1920 0 0 383 c0 243 4 396 11 421 14 50 83 123 134 141 30
11 98 14 268 15 l227 0 0 -240z"/>
<path d="M3710 2874 c-14 -2 -56 -9 -95 -15 -250 -40 -501 -175 -691 -372
-181 -187 -285 -382 -340 -639 -25 -116 -25 -380 0 -496 111 -516 492 -897
1008 -1008 117 -26 380 -25 498 0 123 27 222 62 334 119 343 175 588 500 672
889 25 116 25 380 0 496 -54 251 -159 451 -331 631 -186 195 -395 313 -655
372 -81 19 -340 34 -400 23z m361 -343 c179 -46 319 -127 449 -260 129 -130
212 -278 257 -457 24 -95 24 -333 0 -428 -46 -182 -125 -323 -257 -456 -137
-139 -280 -220 -466 -267 -103 -26 -343 -23 -445 5 -182 49 -316 127 -449 261
-129 129 -212 277 -257 457 -24 95 -24 333 0 428 45 179 128 327 257 457 147
150 309 236 513 275 100 19 299 12 398 -15z"/>
<path d="M3680 1840 l0 -400 400 0 400 0 0 160 0 160 -240 0 -240 0 0 240 0
240 -160 0 -160 0 0 -400z"/>
<path d="M800 2560 l0 -160 560 0 560 0 0 160 0 160 -560 0 -560 0 0 -160z"/>
<path d="M800 1600 l0 -160 560 0 560 0 0 160 0 160 -560 0 -560 0 0 -160z"/>
</g>
</svg>
